<mxfile host="app.diagrams.net" agent="Mozilla/5.0 (X11; Linux x86_64) AppleWebKit/537.36 (KHTML, like Gecko) Chrome/133.0.0.0 Safari/537.36" version="26.1.1">
  <diagram name="Page-1" id="DQxBmw6ZdfWM3atVzSAz">
    <mxGraphModel dx="1434" dy="793" grid="1" gridSize="10" guides="1" tooltips="1" connect="1" arrows="1" fold="1" page="1" pageScale="1" pageWidth="850" pageHeight="1100" math="0" shadow="0">
      <root>
        <mxCell id="0" />
        <mxCell id="1" parent="0" />
        <mxCell id="Qf_joDcqokXTz9H8k9uA-13" style="edgeStyle=orthogonalEdgeStyle;rounded=0;orthogonalLoop=1;jettySize=auto;html=1;exitX=0.5;exitY=1;exitDx=0;exitDy=0;entryX=0;entryY=0.5;entryDx=0;entryDy=0;" edge="1" parent="1" source="Qf_joDcqokXTz9H8k9uA-1" target="Qf_joDcqokXTz9H8k9uA-2">
          <mxGeometry relative="1" as="geometry" />
        </mxCell>
        <mxCell id="Qf_joDcqokXTz9H8k9uA-1" value="dataframetableview.js" style="rounded=1;whiteSpace=wrap;html=1;" vertex="1" parent="1">
          <mxGeometry x="143" y="260" width="130" height="40" as="geometry" />
        </mxCell>
        <mxCell id="Qf_joDcqokXTz9H8k9uA-18" style="edgeStyle=orthogonalEdgeStyle;rounded=0;orthogonalLoop=1;jettySize=auto;html=1;exitX=0.5;exitY=1;exitDx=0;exitDy=0;" edge="1" parent="1" source="Qf_joDcqokXTz9H8k9uA-2" target="Qf_joDcqokXTz9H8k9uA-4">
          <mxGeometry relative="1" as="geometry" />
        </mxCell>
        <mxCell id="Qf_joDcqokXTz9H8k9uA-2" value="transformtableview.js" style="rounded=1;whiteSpace=wrap;html=1;" vertex="1" parent="1">
          <mxGeometry x="263" y="320" width="135" height="40" as="geometry" />
        </mxCell>
        <mxCell id="Qf_joDcqokXTz9H8k9uA-19" style="edgeStyle=orthogonalEdgeStyle;rounded=0;orthogonalLoop=1;jettySize=auto;html=1;entryX=1;entryY=0.5;entryDx=0;entryDy=0;" edge="1" parent="1" source="Qf_joDcqokXTz9H8k9uA-3" target="Qf_joDcqokXTz9H8k9uA-2">
          <mxGeometry relative="1" as="geometry" />
        </mxCell>
        <mxCell id="Qf_joDcqokXTz9H8k9uA-3" value="dfaction.js" style="rounded=1;whiteSpace=wrap;html=1;" vertex="1" parent="1">
          <mxGeometry x="500" y="320" width="80" height="40" as="geometry" />
        </mxCell>
        <mxCell id="Qf_joDcqokXTz9H8k9uA-4" value="dftransforms.js" style="rounded=1;whiteSpace=wrap;html=1;" vertex="1" parent="1">
          <mxGeometry x="262" y="410" width="137" height="40" as="geometry" />
        </mxCell>
        <mxCell id="Qf_joDcqokXTz9H8k9uA-5" value="eventbus.js" style="rounded=1;whiteSpace=wrap;html=1;" vertex="1" parent="1">
          <mxGeometry x="143" y="120" width="107" height="30" as="geometry" />
        </mxCell>
        <mxCell id="Qf_joDcqokXTz9H8k9uA-6" value="exectimer.js" style="rounded=1;whiteSpace=wrap;html=1;" vertex="1" parent="1">
          <mxGeometry x="143" y="80" width="108" height="30" as="geometry" />
        </mxCell>
        <mxCell id="Qf_joDcqokXTz9H8k9uA-7" value="filedialogs.js" style="rounded=1;whiteSpace=wrap;html=1;" vertex="1" parent="1">
          <mxGeometry x="262" y="480" width="138" height="30" as="geometry" />
        </mxCell>
        <mxCell id="Qf_joDcqokXTz9H8k9uA-8" value="fileshandlers.js" style="rounded=1;whiteSpace=wrap;html=1;" vertex="1" parent="1">
          <mxGeometry x="143" y="550" width="117" height="30" as="geometry" />
        </mxCell>
        <mxCell id="Qf_joDcqokXTz9H8k9uA-9" value="formatsaver.js" style="rounded=1;whiteSpace=wrap;html=1;" vertex="1" parent="1">
          <mxGeometry x="143" y="600" width="117" height="30" as="geometry" />
        </mxCell>
        <mxCell id="Qf_joDcqokXTz9H8k9uA-10" value="griditem.js" style="rounded=1;whiteSpace=wrap;html=1;" vertex="1" parent="1">
          <mxGeometry x="143" y="660" width="117" height="30" as="geometry" />
        </mxCell>
        <mxCell id="Qf_joDcqokXTz9H8k9uA-11" value="tabupicker.js" style="rounded=1;whiteSpace=wrap;html=1;" vertex="1" parent="1">
          <mxGeometry x="143" y="160" width="107" height="30" as="geometry" />
        </mxCell>
      </root>
    </mxGraphModel>
  </diagram>
</mxfile>
